<svg width="48" height="48" viewBox="0 0 48 48" fill="none" xmlns="http://www.w3.org/2000/svg">
<path d="M0 24C0 10.7452 10.7452 0 24 0C37.2548 0 48 10.7452 48 24C48 37.2548 37.2548 48 24 48C10.7452 48 0 37.2548 0 24Z" fill="#F1F1F1"/>
<path d="M15.0977 21.1846C15.0977 24.9375 18.2529 28.6465 23.1572 31.8105C23.4297 31.9863 23.7637 32.1621 23.9922 32.1621C24.2207 32.1621 24.5547 31.9863 24.8271 31.8105C29.7402 28.6465 32.8867 24.9375 32.8867 21.1846C32.8867 17.9414 30.6455 15.6914 27.7715 15.6914C26.0928 15.6914 24.7832 16.4561 23.9922 17.6162C23.2188 16.4648 21.9004 15.6914 20.2217 15.6914C17.3389 15.6914 15.0977 17.9414 15.0977 21.1846ZM16.9082 21.1758C16.9082 18.9609 18.3672 17.458 20.3271 17.458C21.9092 17.458 22.7969 18.416 23.3506 19.251C23.5967 19.6113 23.7637 19.7256 23.9922 19.7256C24.2295 19.7256 24.3789 19.6025 24.6338 19.251C25.2314 18.4336 26.084 17.458 27.6572 17.458C29.626 17.458 31.085 18.9609 31.085 21.1758C31.085 24.2695 27.8682 27.6973 24.1592 30.1582C24.0801 30.2109 24.0273 30.2461 23.9922 30.2461C23.957 30.2461 23.9043 30.2109 23.834 30.1582C20.125 27.6973 16.9082 24.2695 16.9082 21.1758Z" fill="#3D3E40"/>
</svg>
