<svg width="28" height="28" viewBox="0 0 28 28" fill="none" xmlns="http://www.w3.org/2000/svg">
<path d="M5.09766 11.1846C5.09766 14.9375 8.25293 18.6465 13.1572 21.8105C13.4297 21.9863 13.7637 22.1621 13.9922 22.1621C14.2207 22.1621 14.5547 21.9863 14.8271 21.8105C19.7402 18.6465 22.8867 14.9375 22.8867 11.1846C22.8867 7.94141 20.6455 5.69141 17.7715 5.69141C16.0928 5.69141 14.7832 6.45605 13.9922 7.61621C13.2188 6.46484 11.9004 5.69141 10.2217 5.69141C7.33887 5.69141 5.09766 7.94141 5.09766 11.1846ZM6.9082 11.1758C6.9082 8.96094 8.36719 7.45801 10.3271 7.45801C11.9092 7.45801 12.7969 8.41602 13.3506 9.25098C13.5967 9.61133 13.7637 9.72559 13.9922 9.72559C14.2295 9.72559 14.3789 9.60254 14.6338 9.25098C15.2314 8.43359 16.084 7.45801 17.6572 7.45801C19.626 7.45801 21.085 8.96094 21.085 11.1758C21.085 14.2695 17.8682 17.6973 14.1592 20.1582C14.0801 20.2109 14.0273 20.2461 13.9922 20.2461C13.957 20.2461 13.9043 20.2109 13.834 20.1582C10.125 17.6973 6.9082 14.2695 6.9082 11.1758Z" fill="#3D3E40"/>
</svg>
