<svg width="36" height="36" viewBox="0 0 36 36" fill="none" xmlns="http://www.w3.org/2000/svg">
<path fill-rule="evenodd" clip-rule="evenodd" d="M18 36C27.9411 36 36 27.9411 36 18C36 8.05887 27.9411 0 18 0C8.05887 0 0 8.05887 0 18C0 27.9411 8.05887 36 18 36ZM18.5471 24.0894C18.3428 24.2212 18.0923 24.353 17.9209 24.353C17.7495 24.353 17.499 24.2212 17.2947 24.0894C13.6165 21.7163 11.25 18.9346 11.25 16.1199C11.25 13.6875 12.9309 12 15.0403 12C16.3521 12 17.3408 12.7251 17.9209 13.8062C18.5142 12.7251 19.4963 12 20.8081 12C22.9109 12 24.5918 13.6875 24.5918 16.1199C24.5918 18.9346 22.2319 21.7163 18.5471 24.0894Z" fill="#3D3E40"/>
</svg>
