<svg width="48" height="48" viewBox="0 0 48 48" fill="none" xmlns="http://www.w3.org/2000/svg">
<path fill-rule="evenodd" clip-rule="evenodd" d="M24 48C37.2548 48 48 37.2548 48 24C48 10.7452 37.2548 0 24 0C10.7452 0 0 10.7452 0 24C0 37.2548 10.7452 48 24 48ZM24.7295 32.1191C24.457 32.2949 24.123 32.4707 23.8945 32.4707C23.666 32.4707 23.332 32.2949 23.0596 32.1191C18.1553 28.9551 15 25.2461 15 21.4932C15 18.25 17.2412 16 20.0537 16C21.8027 16 23.1211 16.9668 23.8945 18.4082C24.6855 16.9668 25.9951 16 27.7441 16C30.5479 16 32.7891 18.25 32.7891 21.4932C32.7891 25.2461 29.6426 28.9551 24.7295 32.1191Z" fill="#3D3E40"/>
</svg>
