<svg width="28" height="28" viewBox="0 0 28 28" fill="none" xmlns="http://www.w3.org/2000/svg">
<path d="M3.25 13.2148C3.25 13.6719 3.60156 14.0674 4.16406 14.0674C4.43652 14.0674 4.68262 13.918 4.90234 13.7422L5.9043 12.8984V21.0723C5.9043 22.373 6.68652 23.1465 8.03125 23.1465H19.9229C21.2588 23.1465 22.0498 22.373 22.0498 21.0723V12.8545L23.1045 13.7422C23.3154 13.918 23.5615 14.0674 23.834 14.0674C24.3525 14.0674 24.748 13.7422 24.748 13.2324C24.748 12.9336 24.6338 12.6963 24.4053 12.5029L22.0498 10.5166V6.77246C22.0498 6.37695 21.7949 6.13086 21.3994 6.13086H20.1865C19.7998 6.13086 19.5361 6.37695 19.5361 6.77246V8.40723L15.2559 4.8125C14.4912 4.1709 13.5244 4.1709 12.7598 4.8125L3.60156 12.5029C3.36426 12.6963 3.25 12.96 3.25 13.2148ZM16.5303 15.6406C16.5303 15.2275 16.2666 14.9639 15.8535 14.9639H12.1621C11.749 14.9639 11.4766 15.2275 11.4766 15.6406V21.3975H8.49707C7.95215 21.3975 7.65332 21.0898 7.65332 20.5361V11.4307L13.6211 6.4209C13.8672 6.20996 14.1484 6.20996 14.3945 6.4209L20.292 11.3779V20.5361C20.292 21.0898 19.9932 21.3975 19.4482 21.3975H16.5303V15.6406Z" fill="#3D3E40"/>
</svg>
