<svg width="28" height="28" viewBox="0 0 28 28" fill="none" xmlns="http://www.w3.org/2000/svg">
<path d="M3.25 13.2148C3.25 13.6719 3.60156 14.0674 4.16406 14.0674C4.43652 14.0674 4.68262 13.918 4.90234 13.7422L13.6211 6.4209C13.8672 6.20996 14.1484 6.20996 14.3945 6.4209L23.1045 13.7422C23.3154 13.918 23.5615 14.0674 23.834 14.0674C24.3525 14.0674 24.748 13.7422 24.748 13.2324C24.748 12.9336 24.6338 12.6963 24.4053 12.5029L21.9355 10.4287V6.77246C21.9355 6.37695 21.6807 6.13086 21.2852 6.13086H20.0723C19.6855 6.13086 19.4219 6.37695 19.4219 6.77246V8.31055L15.2559 4.8125C14.4912 4.1709 13.5244 4.1709 12.7598 4.8125L3.60156 12.5029C3.36426 12.6963 3.25 12.96 3.25 13.2148ZM6.10645 21.1162C6.10645 22.3818 6.89746 23.1465 8.20703 23.1465H19.7998C21.1006 23.1465 21.9004 22.3818 21.9004 21.1162V14.4365L14.5439 8.27539C14.2012 7.97656 13.7881 7.98535 13.4541 8.27539L6.10645 14.4365V21.1162ZM16.3105 21.4941H11.6963V15.8691C11.6963 15.4561 11.9688 15.1924 12.3818 15.1924H15.6338C16.0469 15.1924 16.3105 15.4561 16.3105 15.8691V21.4941Z" fill="#3D3E40"/>
</svg>
