<svg width="36" height="36" viewBox="0 0 36 36" fill="none" xmlns="http://www.w3.org/2000/svg">
<path fill-rule="evenodd" clip-rule="evenodd" d="M18 36C27.9411 36 36 27.9411 36 18C36 8.05887 27.9411 0 18 0C8.05887 0 0 8.05887 0 18C0 27.9411 8.05887 36 18 36ZM18.7295 26.1191C18.457 26.2949 18.123 26.4707 17.8945 26.4707C17.666 26.4707 17.332 26.2949 17.0596 26.1191C12.1553 22.9551 9 19.2461 9 15.4932C9 12.25 11.2412 10 14.0537 10C15.8027 10 17.1211 10.9668 17.8945 12.4082C18.6855 10.9668 19.9951 10 21.7441 10C24.5479 10 26.7891 12.25 26.7891 15.4932C26.7891 19.2461 23.6426 22.9551 18.7295 26.1191Z" fill="#3D3E40"/>
</svg>
