<svg width="48" height="48" viewBox="0 0 48 48" fill="none" xmlns="http://www.w3.org/2000/svg">
<g opacity="0.8">
<path d="M0 24C0 10.7452 10.7452 0 24 0V0C37.2548 0 48 10.7452 48 24V24C48 37.2548 37.2548 48 24 48V48C10.7452 48 0 37.2548 0 24V24Z" fill="white"/>
<path d="M18.3136 27.9341C17.9445 28.3032 17.9269 28.9624 18.3224 29.3403C18.7003 29.7358 19.3683 29.7183 19.7374 29.3491L24.0001 25.0864L28.2628 29.3491C28.6408 29.7271 29.2911 29.7358 29.6691 29.3403C30.0646 28.9624 30.0558 28.3032 29.6779 27.9253L25.4152 23.6626L29.6779 19.4087C30.0558 19.022 30.0646 18.3716 29.6691 17.9937C29.2911 17.5981 28.6408 17.6069 28.2628 17.9849L24.0001 22.2476L19.7374 17.9849C19.3683 17.6157 18.7003 17.5981 18.3224 17.9937C17.9269 18.3716 17.9445 19.0308 18.3136 19.3999L22.5763 23.6626L18.3136 27.9341Z" fill="#3D3E40"/>
</g>
</svg>
