<svg width="36" height="36" viewBox="0 0 36 36" fill="none" xmlns="http://www.w3.org/2000/svg">
<path fill-rule="evenodd" clip-rule="evenodd" d="M18 0C8.05888 0 0 8.05888 0 18C0 27.9411 8.05888 36 18 36C27.9411 36 36 27.9411 36 18C36 8.05888 27.9411 0 18 0ZM20.7139 22.6914C19.624 23.4121 18.3145 23.834 16.917 23.834C13.1113 23.834 10 20.7227 10 16.917C10 13.1113 13.1201 10 16.917 10C20.7227 10 23.834 13.1113 23.834 16.917C23.834 18.3936 23.3682 19.7559 22.5771 20.8809L26.4004 24.7217C26.6465 24.9678 26.7607 25.293 26.7607 25.627C26.7607 26.3477 26.2246 26.9189 25.4951 26.9189C25.1436 26.9189 24.8184 26.7959 24.5635 26.5498L20.7139 22.6914ZM11.8457 16.917C11.8457 19.7031 14.1309 21.9883 16.917 21.9883C19.7031 21.9883 21.9883 19.7031 21.9883 16.917C21.9883 14.1309 19.7031 11.8457 16.917 11.8457C14.1309 11.8457 11.8457 14.1309 11.8457 16.917Z" fill="#3D3E40"/>
</svg>
