<svg width="36" height="36" viewBox="0 0 36 36" fill="none" xmlns="http://www.w3.org/2000/svg">
<path fill-rule="evenodd" clip-rule="evenodd" d="M18 0C8.05888 0 0 8.05888 0 18C0 27.9411 8.05888 36 18 36C27.9411 36 36 27.9411 36 18C36 8.05888 27.9411 0 18 0ZM8.16504 18.0674C7.60254 18.0674 7.25098 17.6719 7.25098 17.2148C7.25098 16.96 7.36523 16.6963 7.60254 16.5029L16.7607 8.8125C17.5254 8.1709 18.4922 8.1709 19.2568 8.8125L23.4229 12.3105V10.7725C23.4229 10.377 23.6865 10.1309 24.0732 10.1309H25.2861C25.6816 10.1309 25.9365 10.377 25.9365 10.7725V14.4287L28.4062 16.5029C28.6348 16.6963 28.749 16.9336 28.749 17.2324C28.749 17.7422 28.3535 18.0674 27.835 18.0674C27.5625 18.0674 27.3164 17.918 27.1055 17.7422L18.3955 10.4209C18.1494 10.21 17.8682 10.21 17.6221 10.4209L8.90332 17.7422C8.68359 17.918 8.4375 18.0674 8.16504 18.0674ZM12.208 27.1465C10.8984 27.1465 10.1074 26.3818 10.1074 25.1162V18.4365L17.4551 12.2754C17.7891 11.9854 18.2021 11.9766 18.5449 12.2754L25.9014 18.4365V25.1162C25.9014 26.3818 25.1016 27.1465 23.8008 27.1465H12.208ZM15.6973 25.4941H20.3115V19.8691C20.3115 19.4561 20.0479 19.1924 19.6348 19.1924H16.3828C15.9697 19.1924 15.6973 19.4561 15.6973 19.8691V25.4941Z" fill="#3D3E40"/>
</svg>
